<svg width="21" height="20" viewBox="0 0 21 20" fill="none" xmlns="http://www.w3.org/2000/svg">
<path fill-rule="evenodd" clip-rule="evenodd" d="M16.377 8.24103C16.5602 8.43333 16.6627 8.69744 16.6627 8.96667C16.6627 9.2359 16.5602 9.50256 16.377 9.69231C16.1963 9.88462 15.9448 9.99231 15.686 9.99231C15.4296 9.99231 15.1781 9.88462 14.9976 9.69231C14.8145 9.50256 14.7092 9.23846 14.7092 8.96667C14.7092 8.69744 14.8145 8.43333 14.9976 8.24103C15.1781 8.05128 15.4296 7.94103 15.686 7.94103C15.9448 7.94103 16.1963 8.05128 16.377 8.24103ZM17.5562 6.75103C17.5875 7.24564 17.2309 7.67308 16.7599 7.70564C16.7409 7.70692 16.7218 7.70769 16.7028 7.70769C16.2564 7.70769 15.8806 7.34385 15.8508 6.86923C15.7592 5.41487 14.854 5.17615 14.6733 5.14308C14.2057 5.0759 13.8858 4.62436 13.9498 4.13333C14.014 3.64205 14.4521 3.30128 14.9197 3.36718C15.7656 3.48897 17.4055 4.35282 17.5562 6.75103ZM17.7948 9.72077C14.6301 13.4485 11.7475 16.3556 10.4999 17.5797C9.25313 16.3567 6.37295 13.4523 3.20512 9.72077C1.92656 8.21487 1.60839 6.37821 2.3324 4.6818C3.00367 3.10846 4.44217 2.05128 5.91168 2.05128C8.8258 2.05128 9.48535 4.34 9.55275 4.60821C9.66068 5.06051 10.0475 5.38462 10.4924 5.38462H10.5009C10.9446 5.38462 11.3341 5.06077 11.4469 4.60949C11.5121 4.34821 12.169 2.0541 15.0885 2.0541C16.5577 2.0541 17.9962 3.10974 18.6677 4.68308C19.3915 6.37949 19.0736 8.21487 17.7948 9.72077ZM20.4501 3.84282C19.454 1.50846 17.3494 0 15.0885 0C12.829 0 11.3634 1.04359 10.4999 2.1741C9.6365 1.04359 8.1709 0 5.91168 0C3.65076 0 1.54612 1.50846 0.549838 3.84282C-0.487466 6.27359 -0.0398721 8.98103 1.74708 11.0859C6.02743 16.1279 9.81012 19.7026 9.84772 19.7379C10.0333 19.9128 10.2667 20 10.4999 20C10.7334 20 10.9666 19.9128 11.1522 19.7379C11.1898 19.7026 14.9725 16.1279 19.2528 11.0859C21.0398 8.98103 21.4876 6.27359 20.4501 3.84282Z" fill="#BE6361"/>
</svg>
